<svg width="233" height="233" viewBox="0 0 233 233" fill="none" xmlns="http://www.w3.org/2000/svg">
<rect width="233" height="233" rx="38" fill="#1376F8"/>
<path d="M193.488 62.2736C189.681 46.6409 177.201 33.9052 161.679 29.8743C150.551 26.9842 139.9 31.6374 130.863 38.2853C129.74 39.1115 128.457 39.5747 127.234 40.1797L137.024 46.475C139.589 48.124 140.336 51.5464 138.683 54.1185C137.141 56.5211 133.75 57.5271 131.04 55.7778L96.2931 33.4385C89.137 29.6876 81.2965 27.769 73.1967 29.8743C57.6746 33.9086 45.1947 46.6409 41.3885 62.2736C37.8865 76.6618 41.2433 90.2099 48.8211 100.45C56.8968 111.363 60.1187 124.186 61.3667 137.561C62.8878 153.864 64.9378 170.112 68.6057 186.07L71.3022 197.806C72.405 202.601 76.6572 206 81.5592 206C86.3887 206 90.5994 202.698 91.7713 197.993L103.688 150.141C105.264 143.808 110.934 139.369 117.433 139.369C123.932 139.369 129.602 143.811 131.178 150.141L143.094 197.993C144.266 202.698 148.477 206 153.306 206C158.209 206 162.461 202.601 163.563 197.806L166.26 186.07C169.928 170.116 171.974 153.864 173.499 137.561C174.747 124.182 177.969 111.363 186.045 100.45C193.633 90.2133 196.989 76.6652 193.488 62.2736Z" fill="white"/>
</svg>
