<svg width="155" height="177" viewBox="0 0 155 177" fill="none" xmlns="http://www.w3.org/2000/svg">
<path d="M153.548 33.274C149.742 17.6413 137.262 4.90556 121.74 0.87466C110.611 -2.01542 99.9603 2.63775 90.9236 9.28562C89.8001 10.1118 88.5175 10.5751 87.2938 11.1801L97.0841 17.4753C99.6492 19.1243 100.396 22.5468 98.7435 25.1188C97.2016 27.5215 93.8103 28.5275 91.0999 26.7782L56.3533 4.43886C49.1973 0.687981 41.3567 -1.23067 33.2569 0.87466C17.7348 4.90902 5.25495 17.6413 1.44876 33.274C-2.05321 47.6621 1.30356 61.2102 8.88138 71.45C16.957 82.3638 20.179 95.1859 21.4269 108.561C22.948 124.865 24.9981 141.113 28.666 157.07L31.3625 168.807C32.4652 173.602 36.7174 177 41.6195 177C46.4489 177 50.6596 173.699 51.8315 168.994L63.7479 121.141C65.3243 114.808 70.9939 110.369 77.4931 110.369C83.9923 110.369 89.6618 114.811 91.2382 121.141L103.155 168.994C104.327 173.699 108.537 177 113.367 177C118.269 177 122.521 173.602 123.624 168.807L126.32 157.07C129.988 141.116 132.035 124.865 133.559 108.561C134.807 95.1825 138.029 82.3638 146.105 71.45C153.693 61.2137 157.05 47.6656 153.548 33.274Z" fill="black"/>
</svg>
