<svg width="1440" height="566" viewBox="0 0 1440 566" fill="none" xmlns="http://www.w3.org/2000/svg">
<path d="M1838.5 391.205C1812.26 390.956 1611.26 558.855 1347.39 556.353C980.832 552.878 789.333 -67.5212 271.425 100.484C-139.163 233.676 -319.209 246.637 -393.267 150.596" stroke="#C1DEEF"/>
<path d="M1839.89 244.541C1816.53 257.295 1611.26 558.853 1347.39 556.352C980.832 552.876 728.722 -0.401011 210.814 167.605C-199.774 300.797 -264.032 278.186 -393.802 207.003" stroke="#C1DEEF"/>
<path d="M1837.64 481.457C1811.41 481.208 1611.21 563.367 1347.35 560.865C980.789 557.389 786.009 -168.514 301.902 48.8717C-51.2019 207.431 -259.454 269.768 -393.695 195.722" stroke="#C1DEEF"/>
</svg>
