<svg width="20" height="20" viewBox="0 0 20 20" fill="none" xmlns="http://www.w3.org/2000/svg">
<path fill-rule="evenodd" clip-rule="evenodd" d="M10 1.5C5.313 1.5 1.5 5.313 1.5 10C1.5 14.687 5.313 18.5 10 18.5C14.687 18.5 18.5 14.687 18.5 10C18.5 5.313 14.687 1.5 10 1.5ZM10 20C4.486 20 0 15.514 0 10C0 4.486 4.486 0 10 0C15.514 0 20 4.486 20 10C20 15.514 15.514 20 10 20Z" fill="#011632"/>
<path fill-rule="evenodd" clip-rule="evenodd" d="M8.55846 14.221C8.36646 14.221 8.17346 14.148 8.02746 14C7.73546 13.706 7.73646 13.232 8.02946 12.94L10.9815 10L8.02946 7.06105C7.73646 6.76905 7.73546 6.29405 8.02746 6.00005C8.31946 5.70505 8.79346 5.70705 9.08746 5.99805L12.5735 9.46905C12.7145 9.61005 12.7935 9.80105 12.7935 10C12.7935 10.2 12.7145 10.391 12.5735 10.532L9.08746 14.002C8.94146 14.148 8.74946 14.221 8.55846 14.221Z" fill="#011632"/>
</svg>
