<svg width="21" height="21" viewBox="0 0 21 21" fill="none" xmlns="http://www.w3.org/2000/svg">
<path fill-rule="evenodd" clip-rule="evenodd" d="M1.28872 2.41793L1.36127 2.34211C3.28869 0.414518 4.54385 -0.0964099 5.88307 0.6737C6.2683 0.895227 6.62945 1.20531 7.12054 1.70409L8.62691 3.26611C9.45894 4.17401 9.64808 5.04486 9.37716 6.06473L9.33984 6.19975L9.29841 6.334L9.09704 6.92482C8.66602 8.2498 8.84597 8.99736 10.3795 10.5305C11.9742 12.1248 12.7186 12.2552 14.1457 11.7565L14.4001 11.668L14.7077 11.5682L14.8423 11.5308C15.9263 11.2416 16.842 11.4724 17.8132 12.4429L19.0269 13.6153L19.3842 13.9667C19.7803 14.3706 20.0421 14.6907 20.2355 15.029C21.0008 16.3678 20.4893 17.6222 18.5063 19.5978L18.3177 19.789C18.0216 20.0743 17.745 20.2787 17.3386 20.4717C16.6565 20.7955 15.8506 20.9176 14.9142 20.7874C12.6067 20.4665 9.68016 18.6459 5.97188 14.9385C5.67002 14.6367 5.3809 14.3408 5.10425 14.0506L4.56748 13.4777C-0.462377 8.01292 -0.906112 4.65596 1.15518 2.55058L1.28872 2.41793ZM5.90639 2.61159C5.58059 2.2904 5.34393 2.0946 5.13529 1.97462C4.67376 1.70922 4.17547 1.8214 3.25327 2.61514L2.9635 2.874C2.91296 2.92066 2.86126 2.96909 2.80835 3.01934L2.47608 3.34297L2.44614 3.38038L2.22088 3.60669C1.67653 4.1627 1.41868 4.8413 1.64088 6.00833C2.00548 7.92335 3.67439 10.5212 7.03238 13.8783C10.5313 17.3763 13.1971 19.0348 15.1208 19.3023C16.2422 19.4583 16.8142 19.1867 17.3975 18.5891L17.8424 18.1401C18.051 17.9218 18.2292 17.724 18.3797 17.5432L18.585 17.2846C19.1097 16.5857 19.1576 16.1665 18.9332 15.7739C18.8478 15.6246 18.7236 15.4608 18.5429 15.2607L18.2976 15.0017L18.1525 14.8565L16.6212 13.3779C16.1095 12.906 15.7599 12.839 15.2289 12.9807L15.0757 13.0248L14.4414 13.2401C12.6013 13.8344 11.2738 13.5462 9.31891 11.5918C7.29427 9.56771 7.05682 8.21603 7.73519 6.26983L7.77871 6.14477L7.89905 5.78219L7.95821 5.55109C8.06311 5.04812 7.94334 4.69743 7.40266 4.15667C7.3804 4.13441 7.35552 4.10932 7.32845 4.08186L5.90639 2.61159Z" fill="#CFCFCF"/>
</svg>
